<svg width="300" height="250" viewBox="0 0 300 250" fill="none" xmlns="http://www.w3.org/2000/svg">
<mask id="mask0_8_73" style="mask-type:alpha" maskUnits="userSpaceOnUse" x="0" y="0" width="300" height="250">
<path d="M300 0H0V250H300V0Z" fill="#C4C4C4"/>
</mask>
<g mask="url(#mask0_8_73)">
<path d="M43.7931 40.7717L63.3916 29.6895H242.157L258.875 46.4694V193.543L256.057 205.252L244.286 218.087H65.8961L51.2443 213.078L43.7931 198.177L40.9128 165.055L43.7931 40.7717Z" fill="white"/>
<path fill-rule="evenodd" clip-rule="evenodd" d="M63.4248 29.6895H242.13L258.875 46.4949V193.505L256.053 205.228L244.259 218.087H65.934L51.2565 213.07L43.7928 198.145L40.9128 165.03L43.7924 40.79L63.4248 29.6895ZM63.4577 29.8147L43.9158 40.8639L41.0381 165.026L43.9154 198.11L51.3455 212.968L65.9548 217.962H244.204L255.939 205.167L258.75 193.49V46.5466L242.078 29.8147H63.4577Z" fill="black"/>
<path fill-rule="evenodd" clip-rule="evenodd" d="M236.615 36.3893H63.7843C54.1769 36.3893 46.3886 44.1781 46.3886 53.7862V195.214C46.3886 204.822 54.1769 212.611 63.7843 212.611H236.615C246.223 212.611 254.011 204.822 254.011 195.214V53.7862C254.011 44.1781 246.223 36.3893 236.615 36.3893ZM63.7843 25C47.8872 25 35 37.888 35 53.7862V195.214C35 211.112 47.8872 224 63.7843 224H236.615C252.512 224 265.4 211.112 265.4 195.214V53.7862C265.4 37.888 252.512 25 236.615 25H63.7843Z" fill="black"/>
<path d="M72.4017 154.298C72.4017 152.219 70.7205 150.534 68.6466 150.534H55.8821C53.8082 150.534 52.127 148.848 52.127 146.769V145.187C52.127 143.108 53.8082 141.423 55.8821 141.423H113.21C115.284 141.423 116.965 143.108 116.965 145.187V146.769C116.965 148.848 115.284 150.534 113.21 150.534H100.445C98.3715 150.534 96.6903 152.219 96.6903 154.298V202.905C96.6903 204.984 95.0091 206.669 92.9352 206.669H76.1568C74.0829 206.669 72.4017 204.984 72.4017 202.905V154.298Z" fill="black"/>
<path d="M137.334 163.24C139.104 163.24 140.477 163.638 141.454 164.434C142.43 165.168 143.162 165.994 143.651 166.913C144.2 168.014 144.505 169.208 144.566 170.493V170.493C144.566 172.471 142.969 174.074 140.999 174.074H131.907C130.882 174.074 130.061 173.27 129.644 172.33V172.33C129.4 171.84 129.034 171.412 128.546 171.044C128.057 170.677 127.386 170.493 126.532 170.493C125.616 170.493 124.914 170.677 124.426 171.044C123.938 171.412 123.572 171.84 123.328 172.33C123.084 172.881 122.931 173.462 122.87 174.074V202.904C122.87 204.983 121.19 206.669 119.119 206.669H105.017C102.945 206.669 101.265 204.983 101.265 202.904V167.005C101.265 164.926 102.945 163.24 105.017 163.24H119.303C121.273 163.24 122.87 164.843 122.87 166.821V166.821C122.931 166.209 123.236 165.627 123.785 165.076C124.274 164.587 124.975 164.158 125.891 163.791C126.867 163.424 128.271 163.24 130.102 163.24H137.334Z" fill="black"/>
<path d="M178.844 163.24C180.614 163.24 182.17 163.454 183.513 163.883C184.916 164.311 186.106 164.862 187.083 165.535C188.12 166.209 188.975 166.974 189.646 167.831C190.317 168.688 190.897 169.575 191.385 170.493C192.484 172.575 193.094 174.962 193.216 177.655V202.812C193.216 204.892 191.537 206.577 189.465 206.577H175.179C173.209 206.577 171.612 204.974 171.612 202.997V202.997C171.551 203.67 171.246 204.282 170.696 204.833C170.208 205.323 169.476 205.751 168.499 206.118C167.523 206.424 166.15 206.577 164.38 206.577H157.148C154.401 206.455 151.991 205.843 149.916 204.741C149 204.313 148.115 203.762 147.261 203.088C146.406 202.354 145.644 201.497 144.972 200.518C144.301 199.477 143.752 198.283 143.324 196.937C142.958 195.59 142.775 193.999 142.775 192.162C142.775 190.326 142.958 188.734 143.324 187.388C143.752 185.98 144.301 184.786 144.972 183.807C145.644 182.766 146.406 181.909 147.261 181.236C148.115 180.563 149 179.981 149.916 179.491C151.991 178.39 154.401 177.778 157.148 177.655H167.861C169.932 177.655 171.612 175.969 171.612 173.89V170.493C171.551 169.82 171.398 169.208 171.154 168.657C170.91 168.167 170.544 167.739 170.056 167.372C169.567 167.004 168.865 166.821 167.95 166.821C167.035 166.821 166.333 167.004 165.844 167.372C165.417 167.739 165.082 168.167 164.838 168.657C164.593 169.208 164.441 169.82 164.38 170.493V170.493C164.38 172.471 162.783 174.074 160.813 174.074H149.913C147.943 174.074 146.345 172.471 146.345 170.493V170.493C146.406 169.208 146.712 168.014 147.261 166.913C147.749 165.994 148.451 165.168 149.366 164.434C150.343 163.638 151.747 163.24 153.577 163.24H178.844ZM164.38 195.743C164.38 197.579 164.746 198.804 165.478 199.416C166.211 200.028 167.035 200.334 167.95 200.334C168.389 200.334 168.848 200.285 169.326 200.187C170.768 199.892 171.612 198.467 171.612 196.99V186.829C171.612 184.812 169.857 183.169 167.95 183.807V183.807C167.035 184.174 166.211 184.725 165.478 185.46C164.746 186.133 164.38 187.173 164.38 188.581V195.743Z" fill="black"/>
<path d="M195.996 167.005C195.996 164.926 197.676 163.24 199.748 163.24H213.85C215.921 163.24 217.601 164.926 217.601 167.005V177.747C217.662 178.42 217.815 179.032 218.059 179.583C218.262 179.991 218.528 180.355 218.858 180.678C218.992 180.809 219.143 180.924 219.314 181.003C219.782 181.219 220.401 181.328 221.171 181.328C222.026 181.328 222.697 181.175 223.185 180.869C223.673 180.501 224.04 180.073 224.284 179.583C224.528 179.032 224.68 178.42 224.741 177.747V167.005C224.741 164.926 226.421 163.24 228.493 163.24H242.686C244.758 163.24 246.438 164.926 246.438 167.005V177.747C246.438 179.522 246.041 180.899 245.247 181.879C244.515 182.797 243.691 183.501 242.776 183.991C241.677 184.541 240.487 184.847 239.205 184.909C240.487 184.97 241.677 185.276 242.776 185.827C243.691 186.317 244.515 187.051 245.247 188.03C246.041 189.01 246.438 190.387 246.438 192.162V202.904C246.438 204.983 244.758 206.669 242.686 206.669H228.493C226.421 206.669 224.741 204.983 224.741 202.904V192.162C224.68 191.55 224.528 190.969 224.284 190.418C224.04 189.928 223.673 189.5 223.185 189.132C222.697 188.765 222.026 188.581 221.171 188.581C220.256 188.581 219.554 188.765 219.066 189.132C218.638 189.5 218.303 189.928 218.059 190.418C217.815 190.969 217.662 191.55 217.601 192.162V202.904C217.601 204.983 215.921 206.669 213.85 206.669H199.748C197.676 206.669 195.996 204.983 195.996 202.904V192.162C195.996 190.387 196.363 189.01 197.095 188.03C197.827 187.051 198.651 186.317 199.567 185.827C200.604 185.276 201.794 184.97 203.137 184.909C201.794 184.847 200.604 184.541 199.567 183.991C198.651 183.501 197.827 182.797 197.095 181.879C196.363 180.899 195.996 179.522 195.996 177.747V167.005Z" fill="black"/>
<path d="M52.127 146.488C52.127 143.691 54.3681 141.423 57.1327 141.423H235.025H246.601H256.112C258.877 141.423 261.118 143.691 261.118 146.488V152.059C261.118 154.856 258.877 157.123 256.112 157.123H246.601H57.1327C54.3681 157.123 52.127 154.856 52.127 152.059V146.488Z" fill="black"/>
<path d="M233.592 124.296H265.4V152.637H233.592V124.296Z" fill="black"/>
<path d="M214.426 118.074C214.426 109.799 221.13 103.091 229.4 103.091H239.008C247.278 103.091 253.981 109.799 253.981 118.074V126.44C253.981 134.715 247.278 141.423 239.008 141.423H229.4C221.13 141.423 214.426 134.715 214.426 126.44V118.074Z" fill="white"/>
<path d="M52.7386 53.1086C52.7386 46.8183 57.8412 41.7191 64.1356 41.7191H236.468C242.762 41.7191 247.865 46.8183 247.865 53.1086V124.324C247.865 130.615 242.762 135.714 236.468 135.714H64.1356C57.8412 135.714 52.7386 130.615 52.7386 124.324V53.1086Z" fill="black"/>
<path d="M105.858 53.9528C107.931 53.9528 109.611 55.6362 109.611 57.7129V59.8589C109.611 61.9355 107.931 63.619 105.858 63.619H94.2649C92.1924 63.619 90.5124 65.3025 90.5124 67.3792V80.9489C90.5124 83.0256 92.1924 84.7091 94.2649 84.7091H94.3602C96.4326 84.7091 98.1127 86.3926 98.1127 88.4692V88.6624C98.1127 90.7391 96.4326 92.4226 94.3602 92.4226H94.2649C92.1924 92.4226 90.5124 94.1061 90.5124 96.1827V109.752C90.5124 111.829 92.1924 113.513 94.2649 113.513H105.858C107.931 113.513 109.611 115.196 109.611 117.273V119.419C109.611 121.495 107.931 123.179 105.858 123.179H71.1717C69.0992 123.179 67.4192 121.495 67.4192 119.419V57.7129C67.4192 55.6362 69.0992 53.9528 71.1717 53.9528H105.858Z" fill="white"/>
<path d="M160.991 53.9528C163.063 53.9528 164.743 55.6362 164.743 57.7129V119.321C164.743 121.398 163.063 123.081 160.991 123.081H145.5C143.427 123.081 141.747 121.398 141.747 119.321V119.273C141.682 119.989 141.358 120.64 140.773 121.226C140.253 121.747 139.474 122.202 138.434 122.593C137.395 122.919 135.934 123.081 134.05 123.081H126.352C124.403 123.081 122.714 122.886 121.285 122.495C119.856 122.04 118.589 121.454 117.485 120.738C116.446 120.022 115.536 119.208 114.757 118.297C114.042 117.386 113.457 116.442 113.003 115.465C111.833 113.252 111.184 110.681 111.054 107.752V92.3249C111.054 90.4372 111.249 88.7774 111.639 87.3453C112.093 85.8482 112.678 84.5789 113.392 83.5374C114.107 82.4308 114.919 81.5195 115.828 80.8035C116.738 80.0875 117.68 79.4691 118.654 78.9484C120.863 77.7767 123.429 77.1258 126.352 76.9956H127.424C127.943 76.9956 128.69 77.0281 129.665 77.0932C130.704 77.0932 132.166 77.0607 134.05 76.9956C135.934 76.9956 137.363 77.1909 138.337 77.5814C139.376 77.9069 140.156 78.33 140.676 78.8507V78.8507C140.851 79.0266 141.747 78.7882 141.747 78.5394V56.1736C141.747 54.9471 142.74 53.9528 143.964 53.9528H160.991ZM141.747 87.1303C141.747 85.6558 140.903 84.2416 139.467 83.9214C138.903 83.7956 138.364 83.7327 137.85 83.7327C136.875 83.7327 135.998 84.0582 135.219 84.7091C134.439 85.36 134.05 86.6293 134.05 88.517V111.56C134.05 113.513 134.439 114.814 135.219 115.465C135.998 116.116 136.875 116.442 137.85 116.442C138.364 116.442 138.903 116.379 139.467 116.253C140.903 115.933 141.747 114.519 141.747 113.044V87.1303Z" fill="white"/>
<path d="M172.429 123.179C170.357 123.179 168.677 121.495 168.677 119.419V80.8534C168.677 78.7767 170.357 77.0932 172.429 77.0932H187.92C189.992 77.0932 191.672 78.7767 191.672 80.8534V119.419C191.672 121.495 189.992 123.179 187.92 123.179H172.429ZM168.677 57.8106C168.677 55.7339 170.357 54.0504 172.429 54.0504H187.92C189.992 54.0504 191.672 55.7339 191.672 57.8106V65.6196C191.672 67.6963 189.992 69.3797 187.92 69.3797H172.429C170.357 69.3797 168.677 67.6963 168.677 65.6196V57.8106Z" fill="white"/>
<path d="M221.53 54.0504C223.603 54.0504 225.283 55.7339 225.283 57.8106V73.3331C225.283 75.4097 226.963 77.0932 229.035 77.0932H229.228C231.301 77.0932 232.981 78.7767 232.981 80.8534V81.0465C232.981 83.1232 231.301 84.8067 229.228 84.8067H229.035C226.963 84.8067 225.283 86.4902 225.283 88.5669V111.657C225.348 112.373 225.51 113.024 225.77 113.61C226.03 114.131 226.387 114.587 226.842 114.977C227.362 115.368 228.109 115.563 229.083 115.563H229.228C231.301 115.563 232.981 117.247 232.981 119.323V119.516C232.981 121.593 231.301 123.277 229.228 123.277H217.585C215.636 123.277 213.947 123.081 212.518 122.691C211.089 122.235 209.822 121.649 208.718 120.933C207.679 120.152 206.769 119.306 205.99 118.395C205.275 117.483 204.691 116.539 204.236 115.563C203.067 113.35 202.417 110.779 202.287 107.85V88.5669C202.287 86.4902 200.607 84.8067 198.535 84.8067H198.342C196.269 84.8067 194.589 83.1232 194.589 81.0465V80.8534C194.589 78.7767 196.269 77.0932 198.342 77.0932H198.535C200.607 77.0932 202.287 75.4097 202.287 73.3331V57.8106C202.287 55.7339 203.967 54.0504 206.04 54.0504H221.53ZM221.53 54.0504C223.603 54.0504 225.283 55.7339 225.283 57.8106V73.3331C225.283 75.4097 226.963 77.0932 229.035 77.0932H229.228C231.301 77.0932 232.981 78.7767 232.981 80.8534V81.0465C232.981 83.1232 231.301 84.8067 229.228 84.8067H229.035C226.963 84.8067 225.283 86.4902 225.283 88.5669V111.657C225.348 112.373 225.51 113.024 225.77 113.61C226.03 114.131 226.387 114.587 226.842 114.977C227.362 115.368 228.109 115.563 229.083 115.563H229.228C231.301 115.563 232.981 117.247 232.981 119.323V119.516C232.981 121.593 231.301 123.277 229.228 123.277H217.585C215.636 123.277 213.947 123.081 212.518 122.691C211.089 122.235 209.822 121.649 208.718 120.933C207.679 120.152 206.769 119.306 205.99 118.395C205.275 117.483 204.691 116.539 204.236 115.563C203.067 113.35 202.417 110.779 202.287 107.85V88.5669C202.287 86.4902 200.607 84.8067 198.535 84.8067H198.342C196.269 84.8067 194.589 83.1232 194.589 81.0465V80.8534C194.589 78.7767 196.269 77.0932 198.342 77.0932H198.535C200.607 77.0932 202.287 75.4097 202.287 73.3331V57.8106C202.287 55.7339 203.967 54.0504 206.04 54.0504H221.53Z" fill="white"/>
</g>
</svg>
