<svg width="618" height="622" viewBox="0 0 618 622" fill="none" xmlns="http://www.w3.org/2000/svg">
<g opacity="0.5">
<g opacity="0.2">
<path d="M560.828 365.598L562.955 351.542L540.009 348.07L537.882 362.125L542.36 362.803L543.641 354.337L548.675 355.099L547.542 362.584L551.857 363.237L552.99 355.752L557.631 356.454L556.35 364.92L560.828 365.598Z" fill="black"/>
<path d="M554.445 388.371L556.719 379.979L534.32 373.909L532.045 382.301C530.109 389.448 533.426 395.28 540.063 397.078C546.732 398.885 552.508 395.519 554.445 388.371ZM537.563 380.645L550.582 384.173L549.882 386.758C548.766 390.874 545.684 392.642 541.568 391.526C537.452 390.411 535.748 387.346 536.863 383.23L537.563 380.645Z" fill="black"/>
<path d="M523.248 404.655L521.007 409.845L542.313 419.045L544.554 413.855L523.248 404.655Z" fill="black"/>
<path d="M531.974 429.275L529.083 434.702L512.597 425.923L509.94 430.912L526.426 439.692L523.536 445.119L527.534 447.248L535.971 431.403L531.974 429.275Z" fill="black"/>
<path d="M515.882 455.27L512.357 460.308L497.054 449.598L493.812 454.23L509.115 464.939L505.59 469.977L509.3 472.574L519.593 457.867L515.882 455.27Z" fill="black"/>
<path d="M485.219 487.387C483.869 486.168 483.724 484.701 485.142 483.131L487.491 480.53L491.76 484.385L489.411 486.986C487.993 488.556 486.495 488.539 485.219 487.387ZM499.033 483.336L481.81 467.782L478.021 471.977L484.522 477.849L483.614 478.855L473.877 476.565L469.601 481.3L480.011 483.486C478.403 486.844 479.376 489.861 481.535 491.811C484.528 494.514 488.863 494.598 492.674 490.378L499.033 483.336Z" fill="black"/>
<path d="M447.864 498.917L443.308 502.796L464.748 515.021L469.731 510.777L461.077 487.664L456.572 491.5L458.173 495.522L451.579 501.137L447.864 498.917ZM455.515 503.517L459.87 499.808L463.214 508.12L455.515 503.517Z" fill="black"/>
<path d="M421.455 515.432L415.905 518.964L428.552 524.553L428.614 538.384L434.025 534.941L433.721 526.827L441.416 530.238L446.967 526.707L434.429 521.166L434.369 507.215L428.958 510.658L429.259 518.891L421.455 515.432Z" fill="black"/>
<path d="M400.553 527.896C401.277 529.491 403.072 530.165 404.878 529.345C406.714 528.511 407.388 526.717 406.664 525.121C405.966 523.586 404.172 522.913 402.336 523.746C400.53 524.566 399.856 526.361 400.553 527.896Z" fill="black"/>
<path d="M381.205 556.625L376.356 543.087L390.106 553.437L395.428 551.531L387.602 529.683L382.28 531.589L387.107 545.065L373.379 534.777L368.057 536.683L375.883 558.532L381.205 556.625Z" fill="black"/>
<path d="M355.59 538.284L350.05 539.407L351.914 548.609L344.98 550.014L345.854 554.323L352.787 552.918L353.759 557.713L344.493 559.591L345.392 564.03L360.199 561.029L355.59 538.284Z" fill="black"/>
<path d="M331.947 560.316L325.82 560.837L324.237 542.226L318.605 542.705L320.188 561.317L314.061 561.838L314.445 566.35L332.331 564.829L331.947 560.316Z" fill="black"/>
<path d="M275.279 545.911C272.488 545.587 270.069 547.502 269.749 550.261C269.425 553.052 271.34 555.471 274.131 555.795C276.89 556.115 279.309 554.2 279.633 551.409C279.953 548.65 278.038 546.231 275.279 545.911Z" fill="black"/>
<path d="M214.892 535.587C212.815 542.246 216.375 548.482 222.686 550.452C228.966 552.411 235.536 549.336 237.614 542.678C239.692 536.019 236.047 529.721 229.767 527.761C223.487 525.802 216.97 528.928 214.892 535.587ZM232.092 540.954C230.861 544.899 227.81 546.683 224.213 545.56C220.678 544.457 219.153 541.245 220.384 537.3C221.595 533.419 224.696 531.581 228.231 532.684C231.828 533.807 233.303 537.072 232.092 540.954Z" fill="black"/>
<path d="M197.641 527.294L195.098 532.527L192.333 531.184C190.311 530.201 189.939 528.771 190.72 527.166C191.5 525.56 192.853 524.968 194.875 525.95L197.641 527.294ZM185.546 524.652C183.682 528.488 184.838 532.615 189.952 535.099L198.189 539.101L208.331 518.227L203.246 515.757L199.605 523.25L196.453 521.719C191.131 519.133 187.222 521.203 185.546 524.652Z" fill="black"/>
<path d="M158.49 515.231L170.398 522.994L183.071 503.552L171.163 495.789L168.689 499.583L175.862 504.259L173.082 508.524L166.74 504.39L164.357 508.046L170.699 512.18L168.136 516.112L160.963 511.437L158.49 515.231Z" fill="black"/>
<path d="M135.287 495.595L144.491 484.546L142.552 501.646L146.895 505.264L161.748 487.433L157.405 483.815L148.243 494.813L150.14 477.763L145.796 474.145L130.943 491.977L135.287 495.595Z" fill="black"/>
<path d="M111.166 441.486C105.02 446.237 113.474 454.201 110.284 456.668C109.133 457.557 107.957 457.171 107.154 456.079C106.25 454.855 106.309 453.472 107.425 452.484L103.685 447.645C100.322 450.538 100.416 454.768 103.51 458.77C106.482 462.615 110.621 463.97 114.1 461.28C120.653 456.298 111.725 448.533 115.126 445.905C116.198 445.076 117.499 445.407 118.51 446.715C119.48 447.97 119.488 449.385 118.176 450.608L121.856 455.368C125.469 452.366 125.045 447.764 121.992 443.814C118.676 439.525 114.253 439.1 111.166 441.486Z" fill="black"/>
<path d="M89.3523 412.865C83.3465 416.413 81.8075 423.428 85.1704 429.12C88.5165 434.784 95.453 436.907 101.459 433.359C107.465 429.811 108.982 422.695 105.636 417.031C102.289 411.366 95.3581 409.318 89.3523 412.865ZM98.5162 428.378C94.9583 430.48 91.4991 429.759 89.5822 426.514C87.699 423.326 88.7201 419.92 92.278 417.818C95.7791 415.75 99.3121 416.466 101.195 419.654C103.112 422.898 102.017 426.31 98.5162 428.378Z" fill="black"/>
<path d="M87.5255 399.394C93.469 396.984 94.8325 391.901 92.8078 386.907C90.7955 381.944 86.1651 378.97 80.2216 381.38L67.3848 386.585L69.5089 391.823L82.3763 386.606C84.9191 385.575 86.9238 386.297 87.93 388.778C88.9361 391.26 87.9748 393.112 85.432 394.143L72.5646 399.36L74.6887 404.599L87.5255 399.394Z" fill="black"/>
<path d="M68.3929 357.313C70.1566 356.871 71.4559 357.568 71.9705 359.62L72.8227 363.019L67.2431 364.418L66.3909 361.019C65.8764 358.967 66.7254 357.731 68.3929 357.313ZM64.0644 371.043L86.5751 365.399L85.2004 359.916L76.7027 362.046L76.3731 360.732L83.697 353.919L82.1453 347.731L74.5332 355.16C72.6388 351.954 69.5914 351.082 66.7696 351.79C62.8574 352.771 60.3743 356.324 61.7571 361.84L64.0644 371.043Z" fill="black"/>
<path d="M70.0369 338.237C76.9329 337.436 81.2033 332.081 80.4137 325.284C79.7768 319.8 76.2423 316.017 71.0983 315.283L71.8153 321.457C73.8962 322.18 75.0835 323.806 75.3314 325.941C75.7319 329.389 73.4452 332.051 69.3732 332.523C65.3013 332.996 62.4653 330.93 62.0648 327.482C61.8169 325.347 62.5999 323.492 64.4596 322.311L63.7425 316.137C58.9037 318.031 56.2975 322.527 56.9344 328.011C57.7239 334.808 63.1408 339.038 70.0369 338.237Z" fill="black"/>
<path d="M57.6887 285.827L57.195 300.034L80.3884 300.84L80.8821 286.633L76.3558 286.476L76.0584 295.033L70.9704 294.856L71.2333 287.29L66.8722 287.139L66.6093 294.705L61.9177 294.542L62.2151 285.985L57.6887 285.827Z" fill="black"/>
<path d="M82.0496 249.449C82.681 246.711 81.0452 244.095 78.3392 243.471C75.601 242.839 72.9847 244.475 72.3533 247.213C71.7293 249.919 73.3652 252.536 76.1033 253.167C78.8093 253.791 81.4256 252.155 82.0496 249.449Z" fill="black"/>
<path d="M82.2812 199.778L78.8048 207.747L100.076 217.027L103.553 209.057C106.514 202.27 104.084 196.016 97.7813 193.267C91.4483 190.504 85.2421 192.991 82.2812 199.778ZM97.8521 209.889L85.4891 204.496L86.5598 202.041C88.2649 198.132 91.5724 196.834 95.4813 198.539C99.3902 200.244 100.628 203.525 98.9227 207.434L97.8521 209.889Z" fill="black"/>
<path d="M117.346 162.863C111.406 159.205 104.484 161.115 101.017 166.745C97.5673 172.347 98.9252 179.473 104.865 183.13C110.804 186.788 117.807 184.811 121.256 179.209C124.706 173.607 123.285 166.52 117.346 162.863ZM107.898 178.204C104.38 176.037 103.404 172.641 105.38 169.432C107.322 166.279 110.811 165.594 114.33 167.761C117.792 169.893 118.807 173.352 116.865 176.505C114.889 179.714 111.361 180.336 107.898 178.204Z" fill="black"/>
<path d="M138.996 156.789L143.414 151.562L134.225 138.774L148.28 145.806L152.698 140.58L138.88 120.978L134.953 125.623L145.677 139.104L130.215 131.228L126.203 135.974L136.436 150.036L121.379 141.68L117.474 146.3L138.996 156.789Z" fill="black"/>
<path d="M163.034 103.605L172.157 114.721L155.726 109.603L151.356 113.189L166.079 131.129L170.448 127.543L161.367 116.477L177.757 121.544L182.127 117.958L167.404 100.019L163.034 103.605Z" fill="black"/>
<path d="M181.053 92.4285L193.076 112.278L204.245 105.513L201.984 101.78L195.651 105.617L185.888 89.4996L181.053 92.4285Z" fill="black"/>
<path d="M230.827 80.4468C227.873 74.1281 221.039 71.9225 215.049 74.7233C209.09 77.51 206.311 84.2107 209.266 90.5294C212.221 96.8481 219.159 99.0416 225.118 96.2548C231.077 93.4681 233.782 86.7655 230.827 80.4468ZM214.507 88.0787C212.756 84.3354 213.806 80.9614 217.22 79.365C220.574 77.7966 223.866 79.1401 225.617 82.8834C227.339 86.5668 226.287 90.0148 222.933 91.5832C219.519 93.1796 216.229 91.7622 214.507 88.0787Z" fill="black"/>
<path d="M262.515 84.225L268.253 82.529L253.623 62.6532L247.345 64.5085L245.87 89.1442L251.545 87.4669L251.715 83.1422L260.021 80.6873L262.515 84.225ZM257.389 76.9147L251.905 78.5357L252.223 69.5821L257.389 76.9147Z" fill="black"/>
<path d="M283.911 57.7741L275.31 59.042L278.694 82.0013L287.295 80.7334C294.621 79.6535 298.642 74.2824 297.639 67.4796C296.631 60.6442 291.237 56.6942 283.911 57.7741ZM283.573 76.3365L281.606 62.9926L284.255 62.6021C288.474 61.9802 291.326 64.0995 291.948 68.3185C292.57 72.5375 290.441 75.3241 286.222 75.946L283.573 76.3365Z" fill="black"/>
<path d="M330.419 80.442L336.057 80.8559L337.079 66.9425L341.266 81.2384L345.816 81.5725L352.012 68.0721L350.993 81.9526L356.63 82.3665L358.33 59.2214L351.703 58.7349L344.097 74.2863L338.779 57.7859L332.119 57.2969L330.419 80.442Z" fill="black"/>
<path d="M386.958 67.3333L373.143 63.9812L367.671 86.5342L381.485 89.8862L382.553 85.4849L374.232 83.4658L375.433 78.5183L382.79 80.3035L383.819 76.0628L376.462 74.2776L377.569 69.7156L385.89 71.7346L386.958 67.3333Z" fill="black"/>
<path d="M396.666 83.3731C394.251 89.8821 397.086 96.1171 403.502 98.4971C408.678 100.417 413.653 98.9833 416.641 94.7319L410.813 92.5704C409.225 94.0967 407.237 94.4172 405.222 93.6698C401.968 92.4626 400.633 89.2171 402.059 85.3737C403.484 81.5303 406.613 79.9405 409.867 81.1478C411.882 81.8951 413.18 83.4343 413.389 85.6275L419.216 87.789C419.724 82.6178 416.899 78.2556 411.723 76.3355C405.307 73.9555 399.08 76.8641 396.666 83.3731Z" fill="black"/>
<path d="M436.348 115.542L441.307 118.254L452.442 97.8925L447.482 95.1803L443.12 103.157L435.405 98.9378L439.766 90.9613L434.807 88.249L423.672 108.611L428.632 111.323L433.216 102.941L440.931 107.16L436.348 115.542Z" fill="black"/>
<path d="M464.377 136.442L469.163 140.032L476.37 116.428L471.134 112.501L450.492 126.029L455.226 129.579L458.796 127.133L465.725 132.33L464.377 136.442ZM467.18 127.966L462.604 124.534L469.977 119.443L467.18 127.966Z" fill="black"/>
<path d="M503.711 143.184L493.543 153.352L497.026 136.498L493.028 132.501L476.618 148.911L480.616 152.908L490.737 142.786L487.301 159.594L491.298 163.591L507.709 147.181L503.711 143.184Z" fill="black"/>
<path d="M497.953 173.94L501.345 178.463L519.911 164.539L516.519 160.016L497.953 173.94Z" fill="black"/>
<path d="M523.176 199.844C529.746 195.697 522.086 186.967 525.497 184.814C526.727 184.038 527.861 184.534 528.556 185.698C529.34 187.001 529.15 188.372 527.944 189.25L531.209 194.422C534.831 191.862 535.139 187.642 532.439 183.364C529.845 179.255 525.853 177.513 522.135 179.86C515.139 184.197 523.289 192.775 519.654 195.069C518.508 195.792 517.245 195.339 516.362 193.941C515.515 192.599 515.642 191.19 517.064 190.097L513.853 185.009C509.971 187.654 509.956 192.276 512.621 196.498C515.514 201.083 519.877 201.926 523.176 199.844Z" fill="black"/>
<path d="M522.08 214.902L524.475 220.023L537.112 214.114L526.687 224.755L528.62 228.887L543.426 227.693L530.818 233.589L533.213 238.71L554.236 228.879L551.421 222.86L534.136 223.826L545.931 211.121L543.103 205.072L522.08 214.902Z" fill="black"/>
<path d="M546.185 273.534C546.722 276.292 549.281 278.017 552.007 277.486C554.765 276.949 556.489 274.39 555.952 271.632C555.422 268.906 552.863 267.182 550.105 267.719C547.379 268.249 545.654 270.808 546.185 273.534Z" fill="black"/>
</g>
</g>
</svg>
