<svg width="65" height="65" viewBox="0 0 65 65" fill="none" xmlns="http://www.w3.org/2000/svg">
<path d="M17 65H48C57.3888 65 65 57.3888 65 48V17C65 7.61116 57.3888 0 48 0H17C7.61116 0 0 7.61116 0 17V48C0 57.3888 7.61116 65 17 65Z" fill="url(#paint0_linear_1247_7564)"/>
<path d="M18.5469 62.9521H46.4517C55.5644 62.9521 62.9517 55.5648 62.9517 46.4521V18.5473C62.9517 9.43466 55.5644 2.04736 46.4517 2.04736H18.5469C9.43417 2.04736 2.04688 9.43466 2.04688 18.5473V46.4521C2.04688 55.5648 9.43417 62.9521 18.5469 62.9521Z" fill="url(#paint1_linear_1247_7564)" stroke="#26CE0B"/>
<path d="M24 26C24 25.4477 24.4477 25 25 25H41C41.5523 25 42 25.4477 42 26V39C42 39.5523 41.5523 40 41 40H25C24.4477 40 24 39.5523 24 39V26Z" fill="white"/>
<path d="M48.97 40.7561C49.6702 40.1501 49.2416 39 48.3155 39H17.5762C16.6634 39 16.2278 40.1226 16.9017 40.7383L31.8559 54.4002C32.2303 54.7422 32.8014 54.7499 33.1848 54.4181L48.97 40.7561Z" fill="white"/>
<path d="M22.5577 19.8668C22.5577 19.2272 22.0551 18.7223 21.2845 18.7223C20.5026 18.7223 20 19.2272 20 19.8668C20 20.5063 20.5026 21 21.2845 21C22.0551 21 22.5577 20.5063 22.5577 19.8668ZM23.2701 20.9102H25.9619L27.0676 16.0631L28.151 20.9102H30.8428L32.7751 13H30.4072L29.4913 18.3633L28.2851 13H25.8837L24.6439 18.4081L23.7281 13H21.3602L23.2701 20.9102ZM37.2112 20.9102H39.5232L36.6639 13H34.1397L31.2692 20.9102H33.57L33.9945 19.6199H36.7868L37.2112 20.9102ZM36.2395 17.9369H34.5529L35.3906 15.3787L36.2395 17.9369ZM41.8897 18.7111L40.1027 13H37.7571L40.4824 20.9102H43.2859L46 13H43.6656L41.8897 18.7111Z" fill="white"/>
<defs>
<linearGradient id="paint0_linear_1247_7564" x1="11.08" y1="7.386" x2="54.6591" y2="56.1364" gradientUnits="userSpaceOnUse">
<stop stop-color="#24FD11"/>
<stop offset="1" stop-color="#0B8F50"/>
</linearGradient>
<linearGradient id="paint1_linear_1247_7564" x1="11.3798" y1="8.28556" x2="50.0707" y2="55.4879" gradientUnits="userSpaceOnUse">
<stop stop-color="#01B81E" stop-opacity="0"/>
<stop offset="1" stop-color="#47B982"/>
</linearGradient>
</defs>
</svg>
