<svg width="24" height="24" viewBox="0 0 24 24" fill="none" xmlns="http://www.w3.org/2000/svg">
<circle cx="12" cy="12" r="12" fill="#4B4F53"/>
<path d="M14.5303 12.5303C14.8232 12.2374 14.8232 11.7626 14.5303 11.4697C14.2374 11.1768 13.7626 11.1768 13.4697 11.4697L14.5303 12.5303ZM11 15L10.4697 14.4697L9.93934 15L10.4697 15.5303L11 15ZM13.4697 18.5303C13.7626 18.8232 14.2374 18.8232 14.5303 18.5303C14.8232 18.2374 14.8232 17.7626 14.5303 17.4697L13.4697 18.5303ZM13.4697 11.4697L10.4697 14.4697L11.5303 15.5303L14.5303 12.5303L13.4697 11.4697ZM10.4697 15.5303L13.4697 18.5303L14.5303 17.4697L11.5303 14.4697L10.4697 15.5303Z" fill="white"/>
<path d="M5.93782 13.25C5.16735 12.5828 4.85875 11.807 5.05989 11.0432C5.26102 10.2793 5.96064 9.56993 7.05025 9.02513C8.13986 8.48032 9.55856 8.13051 11.0863 8.02994C12.6141 7.92938 14.1655 8.08368 15.5 8.46891C16.8345 8.85415 17.8775 9.44879 18.4672 10.1606C19.0568 10.8724 19.1603 11.6617 18.7615 12.4059C18.3627 13.1501 17.4838 13.8077 16.2613 14.2767C15.0388 14.7458 13.5409 15 12 15" stroke="white" stroke-width="1.5" stroke-linecap="round"/>
</svg>
