<svg width="574" height="322" viewBox="0 0 574 322" fill="none" xmlns="http://www.w3.org/2000/svg">
<g clip-path="url(#clip0_2_467)">
<path d="M140.912 145.45C140.912 157.65 147.512 163.5 162.912 163.5C176.962 163.5 184.212 158.55 184.762 147.45H171.462C170.962 150.8 168.412 152.5 162.912 152.5C155.262 152.5 153.912 149.2 153.912 145.45C153.912 141.75 155.212 138.5 162.912 138.5C168.412 138.5 170.962 140.15 171.462 143.45H184.762C184.212 132.4 176.912 127.5 162.912 127.5C147.512 127.5 140.912 133.3 140.912 145.45ZM207.785 163.5C223.135 163.5 229.785 157.6 229.785 145.45C229.785 133.35 223.135 127.5 207.785 127.5C192.385 127.5 185.785 133.3 185.785 145.45C185.785 157.65 192.385 163.5 207.785 163.5ZM207.785 152.5C200.135 152.5 198.785 149.2 198.785 145.45C198.785 141.75 200.085 138.5 207.785 138.5C215.485 138.5 216.785 141.8 216.785 145.45C216.785 149.15 215.435 152.5 207.785 152.5ZM244.304 152V128H231.304V163H267.304V152H244.304ZM281.804 152V128H268.804V163H304.804V152H281.804ZM343.304 138V128H306.304V163H343.304V153H319.304V149.75H343.304V141.25H319.304V138H343.304ZM344.281 145.45C344.281 157.65 350.881 163.5 366.281 163.5C380.331 163.5 387.581 158.55 388.131 147.45H374.831C374.331 150.8 371.781 152.5 366.281 152.5C358.631 152.5 357.281 149.2 357.281 145.45C357.281 141.75 358.581 138.5 366.281 138.5C371.781 138.5 374.331 140.15 374.831 143.45H388.131C387.581 132.4 380.281 127.5 366.281 127.5C350.881 127.5 344.281 133.3 344.281 145.45ZM431.666 128H388.666V139H403.666V163H416.666V139H431.666V128ZM170.476 168H157.476V203H170.476V168ZM204.567 168V188.65L189.467 168H172.467V203H185.467V182.35L200.567 203H217.567V168H204.567ZM256.905 191.5V203H269.905V191.5L287.705 168H272.705L263.405 181L254.105 168H239.105L256.905 191.5ZM305.197 203.5C320.547 203.5 327.197 197.6 327.197 185.45C327.197 173.35 320.547 167.5 305.197 167.5C289.797 167.5 283.197 173.3 283.197 185.45C283.197 197.65 289.797 203.5 305.197 203.5ZM305.197 192.5C297.547 192.5 296.197 189.2 296.197 185.45C296.197 181.75 297.497 178.5 305.197 178.5C312.897 178.5 314.197 181.8 314.197 185.45C314.197 189.15 312.847 192.5 305.197 192.5ZM372.717 185.45V168H359.717V185.45C359.717 189.15 358.367 192.5 350.717 192.5C343.067 192.5 341.717 189.2 341.717 185.45V168H328.717V185.45C328.717 197.65 335.317 203.5 350.717 203.5C366.067 203.5 372.717 197.6 372.717 185.45ZM415.613 181.4C415.613 173.6 410.163 168 402.213 168H374.713V203H387.713V194.8H395.363L400.213 203H415.613L409.413 192.95C413.263 190.7 415.613 186.5 415.613 181.4ZM387.713 179H399.713C401.013 179 402.613 179 402.613 181.4C402.613 183.8 401.013 183.8 399.713 183.8H387.713V179ZM156.702 208L149.452 232.7L141.852 208H126.352L118.752 232.7L111.502 208H97.5525L109.052 243H128.352L134.102 222.85L139.852 243H159.152L170.652 208H156.702ZM195.176 243H209.476L194.976 208H175.676L161.176 243H175.476L177.876 236.7H192.776L195.176 243ZM181.276 227.7L185.326 217L189.376 227.7H181.276ZM223.504 232V208H210.504V243H246.504V232H223.504ZM261.004 232V208H248.004V243H284.004V232H261.004ZM322.504 218V208H285.504V243H322.504V233H298.504V229.75H322.504V221.25H298.504V218H322.504ZM366.48 208H323.48V219H338.48V243H351.48V219H366.48V208ZM430.494 208H387.494V219H402.494V243H415.494V219H430.494V208ZM453 243.5C468.35 243.5 475 237.6 475 225.45C475 213.35 468.35 207.5 453 207.5C437.6 207.5 431 213.3 431 225.45C431 237.65 437.6 243.5 453 243.5ZM453 232.5C445.35 232.5 444 229.2 444 225.45C444 221.75 445.3 218.5 453 218.5C460.7 218.5 462 221.8 462 225.45C462 229.15 460.65 232.5 453 232.5ZM124.321 248H98.321V283H124.321C132.771 283 140.721 277.4 140.721 265.5C140.721 253.6 132.771 248 124.321 248ZM120.321 272H111.321V259H120.321C123.121 259 127.721 259 127.721 265.5C127.721 272 123.121 272 120.321 272ZM163.717 283.5C179.068 283.5 185.718 277.6 185.718 265.45C185.718 253.35 179.068 247.5 163.717 247.5C148.317 247.5 141.717 253.3 141.717 265.45C141.717 277.65 148.317 283.5 163.717 283.5ZM163.717 272.5C156.067 272.5 154.717 269.2 154.717 265.45C154.717 261.75 156.017 258.5 163.717 258.5C171.418 258.5 172.718 261.8 172.718 265.45C172.718 269.15 171.368 272.5 163.717 272.5ZM242.909 248L235.659 272.7L228.059 248H212.559L204.959 272.7L197.709 248H183.759L195.259 283H214.559L220.309 262.85L226.059 283H245.359L256.859 248H242.909ZM290.48 248V268.65L275.38 248H258.38V283H271.38V262.35L286.48 283H303.48V248H290.48ZM318.499 272V248H305.499V283H341.499V272H318.499ZM364.499 283.5C379.849 283.5 386.499 277.6 386.499 265.45C386.499 253.35 379.849 247.5 364.499 247.5C349.099 247.5 342.499 253.3 342.499 265.45C342.499 277.65 349.099 283.5 364.499 283.5ZM364.499 272.5C356.849 272.5 355.499 269.2 355.499 265.45C355.499 261.75 356.799 258.5 364.499 258.5C372.199 258.5 373.499 261.8 373.499 265.45C373.499 269.15 372.149 272.5 364.499 272.5ZM417.026 283H431.326L416.826 248H397.526L383.026 283H397.326L399.726 276.7H414.626L417.026 283ZM403.126 267.7L407.176 257L411.226 267.7H403.126ZM458.354 248H432.354V283H458.354C466.804 283 474.754 277.4 474.754 265.5C474.754 253.6 466.804 248 458.354 248ZM454.354 272H445.354V259H454.354C457.154 259 461.754 259 461.754 265.5C461.754 272 457.154 272 454.354 272ZM132.647 314V323H144.647V314H132.647ZM202.332 288L195.082 312.7L187.482 288H171.982L164.382 312.7L157.132 288H143.182L154.682 323H173.982L179.732 302.85L185.482 323H204.782L216.282 288H202.332ZM240.805 323H255.105L240.605 288H221.305L206.805 323H221.105L223.505 316.7H238.405L240.805 323ZM226.905 307.7L230.955 297L235.005 307.7H226.905ZM276.645 288L266.795 314L256.945 288H242.645L257.145 323H276.445L290.945 288H276.645ZM349.481 299V288H312.481V323H325.481V313.75H346.481V302.75H325.481V299H349.481ZM363.958 288H350.958V323H363.958V288ZM378.948 312V288H365.948V323H401.948V312H378.948ZM440.448 298V288H403.448V323H440.448V313H416.448V309.75H440.448V301.25H416.448V298H440.448Z" fill="black"/>
<path d="M196 65.3235C196 62.3834 198.407 60 201.377 60H278.623C281.593 60 284 62.3834 284 65.3235V96.6765C284 99.6166 281.593 102 278.623 102H201.377C198.407 102 196 99.6166 196 96.6765V65.3235Z" fill="black"/>
<path d="M220.051 66C221.179 66 222.094 66.8938 222.094 67.9964V68.0473C222.094 69.1498 221.179 70.0437 220.051 70.0437H215.946C214.818 70.0437 213.903 70.9375 213.903 72.0401V77.2732C213.903 78.153 214.633 78.8662 215.533 78.8662V78.8662C216.433 78.8662 217.163 79.5794 217.163 80.4592V80.5C217.163 81.3798 216.433 82.093 215.533 82.093V82.093C214.633 82.093 213.903 82.8061 213.903 83.6859V88.9191C213.903 90.0217 214.818 90.9155 215.946 90.9155H220.051C221.179 90.9155 222.094 91.8093 222.094 92.9119V92.9627C222.094 94.0653 221.179 94.9592 220.051 94.9592H206.042C204.914 94.9592 204 94.0653 204 92.9627V67.9964C204 66.8938 204.914 66 206.042 66H220.051Z" fill="white"/>
<path d="M243.694 66C244.822 66 245.737 66.8938 245.737 67.9964V92.9219C245.737 94.0245 244.822 94.9183 243.694 94.9183H237.505C236.605 94.9183 235.875 94.2051 235.875 93.3254V93.3254C235.847 93.6249 235.708 93.8972 235.457 94.1423C235.234 94.3601 234.9 94.5507 234.454 94.7141C234.009 94.8502 233.382 94.9183 232.574 94.9183H229.273C228.437 94.9183 227.713 94.8366 227.1 94.6732C226.487 94.4826 225.944 94.2376 225.47 93.938C225.025 93.6385 224.635 93.2981 224.3 92.9169C223.994 92.5357 223.743 92.1408 223.548 91.7324C223.047 90.8066 222.768 89.731 222.712 88.5056V82.0521C222.712 81.2624 222.796 80.5681 222.963 79.969C223.158 79.3427 223.409 78.8117 223.715 78.3761C224.022 77.9131 224.37 77.5319 224.76 77.2324C225.15 76.9329 225.554 76.6742 225.972 76.4563C226.919 75.9662 228.019 75.6939 229.273 75.6394H229.733C229.955 75.6394 230.276 75.6531 230.694 75.6803C231.139 75.6803 231.766 75.6667 232.574 75.6394C233.382 75.6394 233.995 75.7211 234.413 75.8845C234.858 76.0207 235.193 76.1977 235.416 76.4155V76.4155C235.491 76.4891 235.875 76.3893 235.875 76.2852V66.9291C235.875 66.416 236.301 66 236.826 66H243.694ZM235.875 80.1517C235.875 79.3688 235.416 78.5975 234.623 78.4876C234.479 78.4677 234.339 78.4577 234.204 78.4577C233.786 78.4577 233.41 78.5939 233.076 78.8662C232.741 79.1385 232.574 79.6695 232.574 80.4592V90.0986C232.574 90.9155 232.741 91.4601 233.076 91.7324C233.41 92.0047 233.786 92.1408 234.204 92.1408C234.339 92.1408 234.479 92.1309 234.623 92.1109C235.416 92.0011 235.875 91.2298 235.875 90.4469V80.1517Z" fill="white"/>
<path d="M249.466 94.9592C248.338 94.9592 247.424 94.0653 247.424 92.9627V77.6767C247.424 76.5741 248.338 75.6803 249.466 75.6803H255.243C256.371 75.6803 257.285 76.5741 257.285 77.6767V92.9627C257.285 94.0653 256.371 94.9592 255.243 94.9592H249.466ZM247.424 68.0373C247.424 66.9347 248.338 66.0408 249.466 66.0408H255.243C256.371 66.0408 257.285 66.9347 257.285 68.0373V70.4571C257.285 71.5597 256.371 72.4535 255.243 72.4535H249.466C248.338 72.4535 247.424 71.5597 247.424 70.4571V68.0373Z" fill="white"/>
<path d="M269.656 66.0408C270.784 66.0408 271.699 66.9347 271.699 68.0373V74.0669C271.699 74.9579 272.438 75.6803 273.349 75.6803V75.6803C274.261 75.6803 275 76.4026 275 77.2937V77.2937C275 78.1847 274.261 78.907 273.349 78.907V78.907C272.438 78.907 271.699 79.6294 271.699 80.5204V90.1394C271.727 90.439 271.796 90.7113 271.908 90.9563C272.019 91.1742 272.172 91.3648 272.367 91.5282C272.59 91.6915 272.911 91.7732 273.329 91.7732H273.349C274.261 91.7732 275 92.4956 275 93.3866V93.3866C275 94.2777 274.261 95 273.349 95H268.398C267.562 95 266.838 94.9183 266.225 94.7549C265.612 94.5643 265.069 94.3192 264.595 94.0197C264.149 93.693 263.759 93.339 263.425 92.9577C263.119 92.5765 262.868 92.1817 262.673 91.7732C262.172 90.8474 261.893 89.7718 261.837 88.5465V80.5204C261.837 79.6294 261.098 78.907 260.187 78.907V78.907C259.275 78.907 258.536 78.1847 258.536 77.2937V77.2937C258.536 76.4026 259.275 75.6803 260.187 75.6803V75.6803C261.098 75.6803 261.837 74.9579 261.837 74.0669V68.0373C261.837 66.9347 262.752 66.0408 263.88 66.0408H269.656ZM269.656 66.0408C270.784 66.0408 271.699 66.9347 271.699 68.0373V74.0669C271.699 74.9579 272.438 75.6803 273.349 75.6803V75.6803C274.261 75.6803 275 76.4026 275 77.2937V77.2937C275 78.1847 274.261 78.907 273.349 78.907V78.907C272.438 78.907 271.699 79.6294 271.699 80.5204V90.1394C271.727 90.439 271.796 90.7113 271.908 90.9563C272.019 91.1742 272.172 91.3648 272.367 91.5282C272.59 91.6915 272.911 91.7732 273.329 91.7732H273.349C274.261 91.7732 275 92.4956 275 93.3866V93.3866C275 94.2777 274.261 95 273.349 95H268.398C267.562 95 266.838 94.9183 266.225 94.7549C265.612 94.5643 265.069 94.3192 264.595 94.0197C264.149 93.693 263.759 93.339 263.425 92.9577C263.119 92.5765 262.868 92.1817 262.673 91.7732C262.172 90.8474 261.893 89.7718 261.837 88.5465V80.5204C261.837 79.6294 261.098 78.907 260.187 78.907V78.907C259.275 78.907 258.536 78.1847 258.536 77.2937V77.2937C258.536 76.4026 259.275 75.6803 260.187 75.6803V75.6803C261.098 75.6803 261.837 74.9579 261.837 74.0669V68.0373C261.837 66.9347 262.752 66.0408 263.88 66.0408H269.656Z" fill="white"/>
<path d="M294.756 72.3561C294.756 71.2364 293.834 70.3286 292.696 70.3286H288.059C286.922 70.3286 286 69.4209 286 68.3012V68.0275C286 66.9077 286.922 66 288.059 66H311.941C313.078 66 314 66.9077 314 68.0275V68.3012C314 69.4209 313.078 70.3286 311.941 70.3286H307.304C306.166 70.3286 305.244 71.2364 305.244 72.3561V94.9725C305.244 96.0923 304.322 97 303.185 97H296.815C295.678 97 294.756 96.0923 294.756 94.9725V72.3561Z" fill="black"/>
<path d="M325.143 75C325.985 75 326.637 75.2016 327.101 75.6047C327.565 75.9767 327.914 76.3953 328.146 76.8605C328.407 77.4186 328.552 78.0233 328.581 78.6744C328.581 79.6762 327.822 80.4884 326.885 80.4884H322.564C322.077 80.4884 321.686 80.0807 321.488 79.6047C321.372 79.3566 321.198 79.1395 320.966 78.9535C320.734 78.7674 320.415 78.6744 320.009 78.6744C319.574 78.6744 319.24 78.7674 319.008 78.9535C318.776 79.1395 318.602 79.3566 318.486 79.6047C318.37 79.8837 318.298 80.1783 318.269 80.4884V94.8433C318.269 96.0344 317.366 97 316.253 97H310.016C308.903 97 308 96.0344 308 94.8433V77.1567C308 75.9656 308.903 75 310.016 75H316.573C317.509 75 318.269 75.8121 318.269 76.814C318.298 76.5039 318.443 76.2093 318.704 75.9302C318.936 75.6822 319.269 75.4651 319.704 75.2791C320.169 75.093 320.836 75 321.706 75H325.143Z" fill="black"/>
<path d="M344.873 75C345.714 75 346.454 75.1085 347.092 75.3256C347.759 75.5426 348.325 75.8217 348.789 76.1628C349.282 76.5039 349.688 76.8915 350.007 77.3256C350.326 77.7597 350.602 78.2093 350.834 78.6744C351.356 79.7287 351.646 80.938 351.704 82.3023V94.7967C351.704 95.9879 350.802 96.9535 349.688 96.9535H343.131C342.195 96.9535 341.436 96.1414 341.436 95.1395C341.407 95.4806 341.261 95.7907 341 96.0698C340.768 96.3178 340.42 96.5349 339.956 96.7209C339.492 96.876 338.839 96.9535 337.998 96.9535H334.561C333.255 96.8915 332.11 96.5814 331.123 96.0233C330.688 95.8062 330.268 95.5271 329.862 95.186C329.455 94.814 329.093 94.3798 328.774 93.8837C328.455 93.3566 328.194 92.7519 327.991 92.0698C327.817 91.3876 327.73 90.5814 327.73 89.6512C327.73 88.7209 327.817 87.9147 327.991 87.2326C328.194 86.5194 328.455 85.9147 328.774 85.4186C329.093 84.8915 329.455 84.4574 329.862 84.1163C330.268 83.7752 330.688 83.4806 331.123 83.2326C332.11 82.6744 333.255 82.3643 334.561 82.3023H339.42C340.533 82.3023 341.436 81.3367 341.436 80.1456V78.6744C341.407 78.3333 341.334 78.0233 341.218 77.7442C341.102 77.4961 340.928 77.2791 340.696 77.093C340.464 76.907 340.13 76.814 339.695 76.814C339.26 76.814 338.926 76.907 338.694 77.093C338.491 77.2791 338.332 77.4961 338.216 77.7442C338.1 78.0233 338.027 78.3333 337.998 78.6744C337.998 79.6762 337.239 80.4884 336.303 80.4884H331.122C330.186 80.4884 329.426 79.6762 329.426 78.6744C329.455 78.0233 329.601 77.4186 329.862 76.8605C330.094 76.3953 330.427 75.9767 330.862 75.6047C331.326 75.2016 331.994 75 332.864 75H344.873ZM337.998 91.4651C337.998 92.3954 338.172 93.0155 338.52 93.3256C338.868 93.6357 339.26 93.7907 339.695 93.7907C339.858 93.7907 340.027 93.7756 340.202 93.7453C340.982 93.6098 341.436 92.7824 341.436 91.9364V86.9495C341.436 85.9276 340.601 85.0957 339.695 85.4186C339.26 85.6047 338.868 85.8837 338.52 86.2558C338.172 86.5969 337.998 87.124 337.998 87.8372V91.4651Z" fill="black"/>
<path d="M353.025 77.1567C353.025 75.9656 353.928 75 355.041 75H361.278C362.391 75 363.294 75.9656 363.294 77.1567V82.3488C363.323 82.6899 363.396 83 363.512 83.2791C363.605 83.4798 363.728 83.6603 363.879 83.8205C363.95 83.8964 364.032 83.962 364.124 84.0058C364.344 84.1105 364.633 84.1628 364.991 84.1628C365.397 84.1628 365.716 84.0853 365.948 83.9302C366.18 83.7442 366.354 83.5271 366.47 83.2791C366.586 83 366.659 82.6899 366.688 82.3488V77.1567C366.688 75.9656 367.59 75 368.704 75H374.984C376.097 75 377 75.9656 377 77.1567V82.3488C377 83.2481 376.811 83.9457 376.434 84.4419C376.086 84.907 375.695 85.2636 375.26 85.5116C374.737 85.7907 374.172 85.9457 373.563 85.9767C374.172 86.0078 374.737 86.1628 375.26 86.4419C375.695 86.6899 376.086 87.062 376.434 87.5581C376.811 88.0543 377 88.7519 377 89.6512V94.8433C377 96.0344 376.097 97 374.984 97H368.704C367.59 97 366.688 96.0344 366.688 94.8433V89.6512C366.659 89.3411 366.586 89.0465 366.47 88.7674C366.354 88.5194 366.18 88.3023 365.948 88.1163C365.716 87.9302 365.397 87.8372 364.991 87.8372C364.556 87.8372 364.222 87.9302 363.99 88.1163C363.787 88.3023 363.628 88.5194 363.512 88.7674C363.396 89.0465 363.323 89.3411 363.294 89.6512V94.8433C363.294 96.0344 362.391 97 361.278 97H355.041C353.928 97 353.025 96.0344 353.025 94.8433V89.6512C353.025 88.7519 353.199 88.0543 353.548 87.5581C353.896 87.062 354.287 86.6899 354.722 86.4419C355.215 86.1628 355.781 86.0078 356.419 85.9767C355.781 85.9457 355.215 85.7907 354.722 85.5116C354.287 85.2636 353.896 84.907 353.548 84.4419C353.199 83.9457 353.025 83.2481 353.025 82.3488V77.1567Z" fill="black"/>
<path d="M286 67.8424C286 66.8249 286.929 66 288.076 66H312.924C314.071 66 315 66.8249 315 67.8424V70.1576C315 71.1751 314.071 72 312.924 72H288.076C286.929 72 286 71.1751 286 70.1576V67.8424Z" fill="black"/>
</g>
<defs>
<clipPath id="clip0_2_467">
<rect width="574" height="322" fill="white"/>
</clipPath>
</defs>
</svg>
