<svg width="65" height="65" viewBox="0 0 65 65" fill="none" xmlns="http://www.w3.org/2000/svg">
<path d="M17 64.5H48C57.1127 64.5 64.5 57.1127 64.5 48V17C64.5 7.8873 57.1127 0.5 48 0.5H17C7.8873 0.5 0.5 7.8873 0.5 17V48C0.5 57.1127 7.8873 64.5 17 64.5Z" fill="url(#paint0_linear_1361_7107)" stroke="#CE0B0B"/>
<path d="M18.5469 63.7402H46.4517C55.5644 63.7402 62.9517 56.3529 62.9517 47.2402V19.3354C62.9517 10.2227 55.5644 2.83545 46.4517 2.83545H18.5469C9.43417 2.83545 2.04688 10.2227 2.04688 19.3354V47.2402C2.04688 56.3529 9.43417 63.7402 18.5469 63.7402Z" fill="url(#paint1_linear_1361_7107)" stroke="#CE0B0B"/>
<path d="M42.0759 28.8304V24.9635C42.0759 20.0133 38.0723 16 33.1333 16C28.1943 16 24.1908 20.0133 24.1908 24.9635V28.8304H21V48.1401H45.2668V28.8304H42.0759ZM34.266 39.4555L34.6031 42.9445H31.6634L32.0004 39.4542C31.0034 39.0173 30.3069 38.0201 30.3066 36.8596C30.3066 35.2944 31.5722 34.026 33.1334 34.0247C34.6944 34.026 35.9599 35.2944 35.9601 36.8596C35.9599 38.0201 35.2632 39.0173 34.266 39.4555ZM37.2243 28.8304H29.0426V24.9635C29.0426 22.703 30.8777 20.8641 33.1333 20.8641C35.389 20.8641 37.2243 22.703 37.2243 24.9635V28.8304Z" fill="white"/>
<path d="M37.5201 31.583H23.918V45.2181H37.5201V31.583Z" fill="white"/>
<path d="M29.7461 32.5566H36.5472V38.3999H29.7461V32.5566Z" fill="white"/>
<path d="M40.4332 38.4004H25.8594L32.9494 45.2178L40.4332 38.4004Z" fill="white"/>
<defs>
<linearGradient id="paint0_linear_1361_7107" x1="10.375" y1="7.125" x2="51" y2="56.6875" gradientUnits="userSpaceOnUse">
<stop stop-color="#FF0000"/>
<stop offset="1" stop-color="#B94747"/>
</linearGradient>
<linearGradient id="paint1_linear_1361_7107" x1="11.3798" y1="9.07344" x2="50.0707" y2="56.2759" gradientUnits="userSpaceOnUse">
<stop stop-color="#FF0000"/>
<stop offset="1" stop-color="#B94747"/>
</linearGradient>
</defs>
</svg>
